<svg width="182" height="75" viewBox="0 0 182 75" fill="none" xmlns="http://www.w3.org/2000/svg">
<path d="M134.016 30.0841C134.016 48.3425 106.366 63.1439 72.257 63.1439C38.1485 63.1439 0 53.3017 0 35.0433C205.04 142.157 138.816 0 172.924 0C207.033 0 134.016 11.8257 134.016 30.0841Z" fill="#A584C5"/>
<path d="M43.8789 36.8398V47.4453C43.5664 47.862 43.0911 48.3828 42.4531 49.0078C41.8281 49.6328 40.9492 50.1862 39.8164 50.668C38.6836 51.1497 37.1992 51.3906 35.3633 51.3906C33.8919 51.3906 32.5443 51.1432 31.3203 50.6484C30.1094 50.1536 29.0612 49.4115 28.1758 48.4219C27.3034 47.4193 26.6263 46.1758 26.1445 44.6914C25.6628 43.194 25.4219 41.4427 25.4219 39.4375V34.1055C25.4219 32.1133 25.6237 30.3685 26.0273 28.8711C26.431 27.3737 27.0299 26.1302 27.8242 25.1406C28.6315 24.151 29.6276 23.4089 30.8125 22.9141C32.0104 22.4193 33.4036 22.1719 34.9922 22.1719C36.8281 22.1719 38.3906 22.5169 39.6797 23.207C40.9688 23.8971 41.9648 24.8932 42.668 26.1953C43.3841 27.4974 43.7878 29.0599 43.8789 30.8828H40.2852C40.194 29.7109 39.9466 28.7083 39.543 27.875C39.1393 27.0286 38.5664 26.3841 37.8242 25.9414C37.082 25.4857 36.138 25.2578 34.9922 25.2578C33.8984 25.2578 32.974 25.4401 32.2188 25.8047C31.4635 26.1693 30.8451 26.7161 30.3633 27.4453C29.8945 28.1745 29.5495 29.0924 29.3281 30.1992C29.1198 31.306 29.0156 32.5951 29.0156 34.0664V39.4375C29.0156 40.9479 29.1654 42.263 29.4648 43.3828C29.7643 44.5026 30.1875 45.4271 30.7344 46.1562C31.2943 46.8854 31.9648 47.4323 32.7461 47.7969C33.5273 48.1484 34.4062 48.3242 35.3828 48.3242C36.4896 48.3242 37.362 48.207 38 47.9727C38.638 47.7383 39.1263 47.4714 39.4648 47.1719C39.8164 46.8724 40.0964 46.6315 40.3047 46.4492V39.8867H35.0898V36.8398H43.8789ZM56.7891 51.3906C55.526 51.3906 54.3867 51.2018 53.3711 50.8242C52.3555 50.4466 51.4896 49.8737 50.7734 49.1055C50.0573 48.3242 49.5104 47.3411 49.1328 46.1562C48.7552 44.9714 48.5664 43.5716 48.5664 41.957V39.5742C48.5664 37.7122 48.7812 36.1367 49.2109 34.8477C49.6536 33.5586 50.2461 32.5234 50.9883 31.7422C51.7305 30.9479 52.5703 30.375 53.5078 30.0234C54.4453 29.6589 55.4089 29.4766 56.3984 29.4766C57.7266 29.4766 58.8594 29.6914 59.7969 30.1211C60.7344 30.5508 61.4961 31.1888 62.082 32.0352C62.668 32.8815 63.0977 33.9232 63.3711 35.1602C63.6576 36.3971 63.8008 37.8229 63.8008 39.4375V41.4492H50.5977V38.5H60.3438V38.0117C60.2917 36.918 60.1419 35.9544 59.8945 35.1211C59.6602 34.2878 59.2695 33.6367 58.7227 33.168C58.1758 32.6862 57.401 32.4453 56.3984 32.4453C55.7604 32.4453 55.168 32.556 54.6211 32.7773C54.0872 32.9857 53.625 33.3568 53.2344 33.8906C52.8568 34.4115 52.5573 35.1341 52.3359 36.0586C52.1276 36.9831 52.0234 38.1549 52.0234 39.5742V41.957C52.0234 43.0898 52.1276 44.0664 52.3359 44.8867C52.5573 45.694 52.8763 46.3646 53.293 46.8984C53.7227 47.4193 54.2435 47.8099 54.8555 48.0703C55.4805 48.3177 56.1901 48.4414 56.9844 48.4414C58.1432 48.4414 59.1003 48.2201 59.8555 47.7773C60.6107 47.3216 61.2682 46.7422 61.8281 46.0391L63.6445 48.207C63.2669 48.7409 62.7721 49.2552 62.1602 49.75C61.5612 50.2318 60.819 50.6289 59.9336 50.9414C59.0612 51.2409 58.013 51.3906 56.7891 51.3906ZM75.6953 29.8672V32.6406H65.832V29.8672H75.6953ZM69.0547 24.7305H72.5117V45.7656C72.5117 46.4818 72.5964 47.0221 72.7656 47.3867C72.9479 47.7513 73.1758 47.9922 73.4492 48.1094C73.7227 48.2266 74.0156 48.2852 74.3281 48.2852C74.5625 48.2852 74.8229 48.2591 75.1094 48.207C75.3958 48.1419 75.5911 48.0898 75.6953 48.0508L75.6758 51C75.4414 51.0911 75.1289 51.1758 74.7383 51.2539C74.3477 51.3451 73.8529 51.3906 73.2539 51.3906C72.5117 51.3906 71.8216 51.2148 71.1836 50.8633C70.5456 50.5117 70.0312 49.9258 69.6406 49.1055C69.25 48.2721 69.0547 47.1523 69.0547 45.7461V24.7305ZM86.7305 51H81.8867L81.9258 47.9336H86.7305C88.4362 47.9336 89.8229 47.6081 90.8906 46.957C91.9583 46.293 92.7461 45.3164 93.2539 44.0273C93.7617 42.7253 94.0156 41.1172 94.0156 39.2031V34.3398C94.0156 32.8294 93.8724 31.5273 93.5859 30.4336C93.2995 29.3398 92.8698 28.4414 92.2969 27.7383C91.724 27.0352 91.0013 26.5143 90.1289 26.1758C89.2565 25.8242 88.2344 25.6484 87.0625 25.6484H81.7891V22.5625H87.0625C88.6641 22.5625 90.1094 22.8164 91.3984 23.3242C92.6875 23.819 93.7943 24.5677 94.7188 25.5703C95.6432 26.5599 96.3464 27.7904 96.8281 29.2617C97.3229 30.7331 97.5703 32.4388 97.5703 34.3789V39.2031C97.5703 41.1432 97.3229 42.849 96.8281 44.3203C96.3464 45.7917 95.6367 47.0221 94.6992 48.0117C93.7617 49.0013 92.6224 49.75 91.2812 50.2578C89.9531 50.7526 88.4362 51 86.7305 51ZM83.8789 22.5625V51H80.2852V22.5625H83.8789ZM101.945 41.4492V39.4375C101.945 37.7969 102.154 36.3581 102.57 35.1211C102.987 33.8711 103.566 32.8294 104.309 31.9961C105.051 31.1628 105.917 30.5378 106.906 30.1211C107.896 29.6914 108.957 29.4766 110.09 29.4766C111.249 29.4766 112.323 29.6914 113.312 30.1211C114.302 30.5378 115.168 31.1628 115.91 31.9961C116.665 32.8294 117.251 33.8711 117.668 35.1211C118.085 36.3581 118.293 37.7969 118.293 39.4375V41.4492C118.293 43.0898 118.085 44.5352 117.668 45.7852C117.251 47.0221 116.672 48.0573 115.93 48.8906C115.188 49.724 114.322 50.349 113.332 50.7656C112.342 51.1823 111.275 51.3906 110.129 51.3906C108.983 51.3906 107.915 51.1823 106.926 50.7656C105.936 50.349 105.064 49.724 104.309 48.8906C103.566 48.0573 102.987 47.0221 102.57 45.7852C102.154 44.5352 101.945 43.0898 101.945 41.4492ZM105.402 39.4375V41.4492C105.402 42.6081 105.52 43.6237 105.754 44.4961C105.988 45.3685 106.32 46.0977 106.75 46.6836C107.18 47.2695 107.681 47.7122 108.254 48.0117C108.827 48.2982 109.452 48.4414 110.129 48.4414C110.91 48.4414 111.594 48.2982 112.18 48.0117C112.779 47.7122 113.273 47.2695 113.664 46.6836C114.055 46.0977 114.348 45.3685 114.543 44.4961C114.738 43.6237 114.836 42.6081 114.836 41.4492V39.4375C114.836 38.2786 114.719 37.2695 114.484 36.4102C114.25 35.5378 113.918 34.8086 113.488 34.2227C113.059 33.6237 112.551 33.181 111.965 32.8945C111.392 32.5951 110.767 32.4453 110.09 32.4453C109.426 32.4453 108.807 32.5951 108.234 32.8945C107.661 33.181 107.16 33.6237 106.73 34.2227C106.314 34.8086 105.988 35.5378 105.754 36.4102C105.52 37.2695 105.402 38.2786 105.402 39.4375ZM126.203 34.3789V51H122.746V29.8672H126.008L126.203 34.3789ZM125.363 39.6328L123.957 39.5742C123.944 38.1289 124.107 36.7943 124.445 35.5703C124.797 34.3333 125.292 33.2591 125.93 32.3477C126.581 31.4362 127.355 30.7331 128.254 30.2383C129.152 29.7305 130.148 29.4766 131.242 29.4766C132.102 29.4766 132.883 29.6198 133.586 29.9062C134.289 30.1797 134.888 30.6224 135.383 31.2344C135.878 31.8464 136.255 32.6406 136.516 33.6172C136.789 34.5807 136.926 35.7591 136.926 37.1523V51H133.469V37.1133C133.469 36.0065 133.345 35.1211 133.098 34.457C132.863 33.7799 132.499 33.2917 132.004 32.9922C131.522 32.6797 130.91 32.5234 130.168 32.5234C129.491 32.5234 128.859 32.7122 128.273 33.0898C127.688 33.4674 127.173 33.9883 126.73 34.6523C126.301 35.3164 125.962 36.0781 125.715 36.9375C125.48 37.7839 125.363 38.6823 125.363 39.6328ZM149.68 51.3906C148.417 51.3906 147.277 51.2018 146.262 50.8242C145.246 50.4466 144.38 49.8737 143.664 49.1055C142.948 48.3242 142.401 47.3411 142.023 46.1562C141.646 44.9714 141.457 43.5716 141.457 41.957V39.5742C141.457 37.7122 141.672 36.1367 142.102 34.8477C142.544 33.5586 143.137 32.5234 143.879 31.7422C144.621 30.9479 145.461 30.375 146.398 30.0234C147.336 29.6589 148.299 29.4766 149.289 29.4766C150.617 29.4766 151.75 29.6914 152.688 30.1211C153.625 30.5508 154.387 31.1888 154.973 32.0352C155.559 32.8815 155.988 33.9232 156.262 35.1602C156.548 36.3971 156.691 37.8229 156.691 39.4375V41.4492H143.488V38.5H153.234V38.0117C153.182 36.918 153.033 35.9544 152.785 35.1211C152.551 34.2878 152.16 33.6367 151.613 33.168C151.066 32.6862 150.292 32.4453 149.289 32.4453C148.651 32.4453 148.059 32.556 147.512 32.7773C146.978 32.9857 146.516 33.3568 146.125 33.8906C145.747 34.4115 145.448 35.1341 145.227 36.0586C145.018 36.9831 144.914 38.1549 144.914 39.5742V41.957C144.914 43.0898 145.018 44.0664 145.227 44.8867C145.448 45.694 145.767 46.3646 146.184 46.8984C146.613 47.4193 147.134 47.8099 147.746 48.0703C148.371 48.3177 149.081 48.4414 149.875 48.4414C151.034 48.4414 151.991 48.2201 152.746 47.7773C153.501 47.3216 154.159 46.7422 154.719 46.0391L156.535 48.207C156.158 48.7409 155.663 49.2552 155.051 49.75C154.452 50.2318 153.71 50.6289 152.824 50.9414C151.952 51.2409 150.904 51.3906 149.68 51.3906Z" fill="white"/>
</svg>
